<svg width="200" height="60" viewBox="0 0 200 60" fill="none" xmlns="http://www.w3.org/2000/svg">
  <path d="M30 15C21.716 15 15 21.716 15 30C15 38.284 21.716 45 30 45C38.284 45 45 38.284 45 30C45 21.716 38.284 15 30 15ZM30 40C24.477 40 20 35.523 20 30C20 24.477 24.477 20 30 20C35.523 20 40 24.477 40 30C40 35.523 35.523 40 30 40Z" fill="#4CAF50"/>
  <circle cx="27" cy="27" r="2" fill="#4CAF50"/>
  <circle cx="33" cy="27" r="2" fill="#4CAF50"/>
  <path d="M30 31C26.5 31 24 33 24 35C24 35.552 24.448 36 25 36H35C35.552 36 36 35.552 36 35C36 33 33.5 31 30 31Z" fill="#4CAF50"/>
  <path d="M75.432 35V25H78.568C80.792 25 82.152 26.248 82.152 28.136C82.152 30.024 80.792 31.272 78.568 31.272H77.144V35H75.432ZM77.144 29.848H78.344C79.512 29.848 80.328 29.24 80.328 28.136C80.328 27.032 79.512 26.424 78.344 26.424H77.144V29.848Z" fill="#1D1D1F"/>
  <path d="M89.1561 35.168C86.7641 35.168 85.1481 33.44 85.1481 30.968C85.1481 28.496 86.7641 26.768 89.1561 26.768C91.5481 26.768 93.1641 28.496 93.1641 30.968C93.1641 33.44 91.5481 35.168 89.1561 35.168ZM89.1561 33.632C90.5721 33.632 91.4401 32.584 91.4401 30.968C91.4401 29.352 90.5721 28.304 89.1561 28.304C87.7401 28.304 86.8721 29.352 86.8721 30.968C86.8721 32.584 87.7401 33.632 89.1561 33.632Z" fill="#1D1D1F"/>
  <path d="M99.0875 35.168C96.6955 35.168 95.0795 33.44 95.0795 30.968C95.0795 28.496 96.6955 26.768 99.0875 26.768C101.48 26.768 103.096 28.496 103.096 30.968C103.096 33.44 101.48 35.168 99.0875 35.168ZM99.0875 33.632C100.504 33.632 101.372 32.584 101.372 30.968C101.372 29.352 100.504 28.304 99.0875 28.304C97.6715 28.304 96.8035 29.352 96.8035 30.968C96.8035 32.584 97.6715 33.632 99.0875 33.632Z" fill="#1D1D1F"/>
  <path d="M109.099 35.168C106.707 35.168 105.091 33.44 105.091 30.968C105.091 28.496 106.707 26.768 109.099 26.768C111.491 26.768 113.107 28.496 113.107 30.968C113.107 33.44 111.491 35.168 109.099 35.168ZM109.099 33.632C110.515 33.632 111.383 32.584 111.383 30.968C111.383 29.352 110.515 28.304 109.099 28.304C107.683 28.304 106.815 29.352 106.815 30.968C106.815 32.584 107.683 33.632 109.099 33.632Z" fill="#1D1D1F"/>
  <path d="M119.11 35.168C116.718 35.168 115.102 33.44 115.102 30.968C115.102 28.496 116.718 26.768 119.11 26.768C121.502 26.768 123.118 28.496 123.118 30.968C123.118 33.44 121.502 35.168 119.11 35.168ZM119.11 33.632C120.526 33.632 121.394 32.584 121.394 30.968C121.394 29.352 120.526 28.304 119.11 28.304C117.694 28.304 116.826 29.352 116.826 30.968C116.826 32.584 117.694 33.632 119.11 33.632Z" fill="#1D1D1F"/>
  <path d="M129.122 35.168C126.73 35.168 125.114 33.44 125.114 30.968C125.114 28.496 126.73 26.768 129.122 26.768C131.514 26.768 133.13 28.496 133.13 30.968C133.13 33.44 131.514 35.168 129.122 35.168ZM129.122 33.632C130.538 33.632 131.406 32.584 131.406 30.968C131.406 29.352 130.538 28.304 129.122 28.304C127.706 28.304 126.838 29.352 126.838 30.968C126.838 32.584 127.706 33.632 129.122 33.632Z" fill="#1D1D1F"/>
  <path d="M139.133 35.168C136.741 35.168 135.125 33.44 135.125 30.968C135.125 28.496 136.741 26.768 139.133 26.768C141.525 26.768 143.141 28.496 143.141 30.968C143.141 33.44 141.525 35.168 139.133 35.168ZM139.133 33.632C140.549 33.632 141.417 32.584 141.417 30.968C141.417 29.352 140.549 28.304 139.133 28.304C137.717 28.304 136.849 29.352 136.849 30.968C136.849 32.584 137.717 33.632 139.133 33.632Z" fill="#1D1D1F"/>
</svg>