<svg width="200" height="60" viewBox="0 0 200 60" fill="none" xmlns="http://www.w3.org/2000/svg">
  <path d="M30 15C21.716 15 15 21.716 15 30C15 38.284 21.716 45 30 45C38.284 45 45 38.284 45 30C45 21.716 38.284 15 30 15ZM30 40C24.477 40 20 35.523 20 30C20 24.477 24.477 20 30 20C35.523 20 40 24.477 40 30C40 35.523 35.523 40 30 40Z" fill="#007AFF"/>
  <path d="M60 27.5H50V32.5H60V27.5Z" fill="#007AFF"/>
  <path d="M75.432 35V25H78.568C80.792 25 82.152 26.248 82.152 28.136C82.152 30.024 80.792 31.272 78.568 31.272H77.144V35H75.432ZM77.144 29.848H78.344C79.512 29.848 80.328 29.24 80.328 28.136C80.328 27.032 79.512 26.424 78.344 26.424H77.144V29.848Z" fill="#1D1D1F"/>
  <path d="M89.1561 35.168C86.7641 35.168 85.1481 33.44 85.1481 30.968C85.1481 28.496 86.7641 26.768 89.1561 26.768C91.5481 26.768 93.1641 28.496 93.1641 30.968C93.1641 33.44 91.5481 35.168 89.1561 35.168ZM89.1561 33.632C90.5721 33.632 91.4401 32.584 91.4401 30.968C91.4401 29.352 90.5721 28.304 89.1561 28.304C87.7401 28.304 86.8721 29.352 86.8721 30.968C86.8721 32.584 87.7401 33.632 89.1561 33.632Z" fill="#1D1D1F"/>
  <path d="M99.0875 35.168C96.6955 35.168 95.0795 33.44 95.0795 30.968C95.0795 28.496 96.6955 26.768 99.0875 26.768C101.48 26.768 103.096 28.496 103.096 30.968C103.096 33.44 101.48 35.168 99.0875 35.168ZM99.0875 33.632C100.504 33.632 101.372 32.584 101.372 30.968C101.372 29.352 100.504 28.304 99.0875 28.304C97.6715 28.304 96.8035 29.352 96.8035 30.968C96.8035 32.584 97.6715 33.632 99.0875 33.632Z" fill="#1D1D1F"/>
  <path d="M109.099 35.168C106.707 35.168 105.091 33.44 105.091 30.968C105.091 28.496 106.707 26.768 109.099 26.768C111.491 26.768 113.107 28.496 113.107 30.968C113.107 33.44 111.491 35.168 109.099 35.168ZM109.099 33.632C110.515 33.632 111.383 32.584 111.383 30.968C111.383 29.352 110.515 28.304 109.099 28.304C107.683 28.304 106.815 29.352 106.815 30.968C106.815 32.584 107.683 33.632 109.099 33.632Z" fill="#1D1D1F"/>
  <path d="M119.11 35.168C116.718 35.168 115.102 33.44 115.102 30.968C115.102 28.496 116.718 26.768 119.11 26.768C121.502 26.768 123.118 28.496 123.118 30.968C123.118 33.44 121.502 35.168 119.11 35.168ZM119.11 33.632C120.526 33.632 121.394 32.584 121.394 30.968C121.394 29.352 120.526 28.304 119.11 28.304C117.694 28.304 116.826 29.352 116.826 30.968C116.826 32.584 117.694 33.632 119.11 33.632Z" fill="#1D1D1F"/>
  <path d="M129.122 35.168C126.73 35.168 125.114 33.44 125.114 30.968C125.114 28.496 126.73 26.768 129.122 26.768C131.514 26.768 133.13 28.496 133.13 30.968C133.13 33.44 131.514 35.168 129.122 35.168ZM129.122 33.632C130.538 33.632 131.406 32.584 131.406 30.968C131.406 29.352 130.538 28.304 129.122 28.304C127.706 28.304 126.838 29.352 126.838 30.968C126.838 32.584 127.706 33.632 129.122 33.632Z" fill="#1D1D1F"/>
  <path d="M139.133 35.168C136.741 35.168 135.125 33.44 135.125 30.968C135.125 28.496 136.741 26.768 139.133 26.768C141.525 26.768 143.141 28.496 143.141 30.968C143.141 33.44 141.525 35.168 139.133 35.168ZM139.133 33.632C140.549 33.632 141.417 32.584 141.417 30.968C141.417 29.352 140.549 28.304 139.133 28.304C137.717 28.304 136.849 29.352 136.849 30.968C136.849 32.584 137.717 33.632 139.133 33.632Z" fill="#1D1D1F"/>
  <path d="M149.145 35.168C146.753 35.168 145.137 33.44 145.137 30.968C145.137 28.496 146.753 26.768 149.145 26.768C151.537 26.768 153.153 28.496 153.153 30.968C153.153 33.44 151.537 35.168 149.145 35.168ZM149.145 33.632C150.561 33.632 151.429 32.584 151.429 30.968C151.429 29.352 150.561 28.304 149.145 28.304C147.729 28.304 146.861 29.352 146.861 30.968C146.861 32.584 147.729 33.632 149.145 33.632Z" fill="#1D1D1F"/>
  <path d="M159.156 35.168C156.764 35.168 155.148 33.44 155.148 30.968C155.148 28.496 156.764 26.768 159.156 26.768C161.548 26.768 163.164 28.496 163.164 30.968C163.164 33.44 161.548 35.168 159.156 35.168ZM159.156 33.632C160.572 33.632 161.44 32.584 161.44 30.968C161.44 29.352 160.572 28.304 159.156 28.304C157.74 28.304 156.872 29.352 156.872 30.968C156.872 32.584 157.74 33.632 159.156 33.632Z" fill="#1D1D1F"/>
  <path d="M169.168 35.168C166.776 35.168 165.16 33.44 165.16 30.968C165.16 28.496 166.776 26.768 169.168 26.768C171.56 26.768 173.176 28.496 173.176 30.968C173.176 33.44 171.56 35.168 169.168 35.168ZM169.168 33.632C170.584 33.632 171.452 32.584 171.452 30.968C171.452 29.352 170.584 28.304 169.168 28.304C167.752 28.304 166.884 29.352 166.884 30.968C166.884 32.584 167.752 33.632 169.168 33.632Z" fill="#1D1D1F"/>
  <path d="M179.179 35.168C176.787 35.168 175.171 33.44 175.171 30.968C175.171 28.496 176.787 26.768 179.179 26.768C181.571 26.768 183.187 28.496 183.187 30.968C183.187 33.44 181.571 35.168 179.179 35.168ZM179.179 33.632C180.595 33.632 181.463 32.584 181.463 30.968C181.463 29.352 180.595 28.304 179.179 28.304C177.763 28.304 176.895 29.352 176.895 30.968C176.895 32.584 177.763 33.632 179.179 33.632Z" fill="#1D1D1F"/>
</svg>